<svg width="14" height="19" viewBox="0 0 14 19" fill="none" xmlns="http://www.w3.org/2000/svg">
<path fill-rule="evenodd" clip-rule="evenodd" d="M11.248 2.032C10.1277 0.91138 8.61444 0.272051 7.03003 0.25H6.97003C5.38549 0.27173 3.87196 0.910848 2.75142 2.03139C1.63087 3.15193 0.991757 4.66546 0.970027 6.25C0.950527 7.375 1.26703 8.4805 1.87903 9.4255L6.60103 19H7.40053L12.121 9.4255C12.7345 8.4805 13.051 7.375 13.03 6.25C13.008 4.66559 12.3686 3.15229 11.248 2.032ZM6.88753 1.75L7.01053 1.765L7.12153 1.75C8.29988 1.80132 9.4138 2.3021 10.2343 3.14939C11.0548 3.99668 11.5196 5.12611 11.533 6.3055C11.5445 7.14254 11.3001 7.96313 10.8325 8.6575L10.8025 8.7085L10.777 8.761L7.00003 16.4185L3.22453 8.7685L3.19903 8.71L3.16903 8.659C2.70145 7.96463 2.45705 7.14404 2.46853 6.307C2.48132 5.12625 2.94661 3.99539 3.76851 3.14755C4.5904 2.2997 5.70624 1.79948 6.88603 1.75H6.88753ZM7.80553 5.0035C7.64174 4.89398 7.45798 4.81779 7.26474 4.77928C7.0715 4.74078 6.87258 4.74071 6.67931 4.77908C6.48605 4.81746 6.30224 4.89352 6.13838 5.00293C5.97451 5.11234 5.8338 5.25296 5.72428 5.41675C5.61475 5.58054 5.53857 5.7643 5.50006 5.95754C5.46155 6.15077 5.46149 6.3497 5.49986 6.54296C5.53823 6.73622 5.6143 6.92004 5.72371 7.0839C5.83312 7.24777 5.97374 7.38848 6.13753 7.498C6.46832 7.71919 6.87343 7.79992 7.26374 7.72242C7.65405 7.64492 7.99759 7.41554 8.21878 7.08475C8.43997 6.75396 8.52069 6.34885 8.44319 5.95854C8.36569 5.56823 8.13632 5.22469 7.80553 5.0035ZM5.30503 3.7555C5.63232 3.52543 6.00231 3.36315 6.39325 3.2782C6.78419 3.19326 7.18817 3.18736 7.58142 3.26086C7.97467 3.33436 8.34925 3.48577 8.68312 3.70618C9.01698 3.9266 9.30339 4.21156 9.52549 4.54431C9.74759 4.87706 9.90089 5.25087 9.97637 5.64374C10.0519 6.03662 10.048 6.44062 9.96503 6.83198C9.88206 7.22334 9.72165 7.59416 9.49324 7.92261C9.26483 8.25105 8.97304 8.5305 8.63503 8.7445C7.97338 9.1634 7.17416 9.30698 6.40808 9.14457C5.64199 8.98215 4.96979 8.52662 4.53504 7.87528C4.10028 7.22394 3.93745 6.42841 4.08133 5.65864C4.2252 4.88886 4.66437 4.20585 5.30503 3.7555Z" fill="white"/>
</svg>
